<svg width="33" height="32" viewBox="0 0 33 32" fill="none" xmlns="http://www.w3.org/2000/svg">
<g id="ant-design:read-outlined">
<path id="Vector" d="M29.5 5.03125H22.35C20.8156 5.03125 19.3156 5.47188 18.025 6.30313L16.5 7.28126L14.975 6.30313C13.6857 5.47204 12.184 5.03043 10.65 5.03125H3.5C2.94687 5.03125 2.5 5.47813 2.5 6.03125V23.7813C2.5 24.3344 2.94687 24.7813 3.5 24.7813H10.65C12.1844 24.7813 13.6844 25.2219 14.975 26.0532L16.3625 26.9469C16.4031 26.9719 16.45 26.9875 16.4969 26.9875C16.5437 26.9875 16.5906 26.975 16.6313 26.9469L18.0187 26.0532C19.3125 25.2219 20.8156 24.7813 22.35 24.7813H29.5C30.0531 24.7813 30.5 24.3344 30.5 23.7813V6.03125C30.5 5.47813 30.0531 5.03125 29.5 5.03125ZM10.65 22.5313H4.75V7.28126H10.65C11.7562 7.28126 12.8312 7.59688 13.7594 8.19376L15.2844 9.17188L15.5 9.31251V23.75C14.0125 22.95 12.35 22.5313 10.65 22.5313ZM28.25 22.5313H22.35C20.65 22.5313 18.9875 22.95 17.5 23.75V9.31251L17.7156 9.17188L19.2406 8.19376C20.1688 7.59688 21.2437 7.28126 22.35 7.28126H28.25V22.5313ZM12.9031 11.2813H7.09688C6.975 11.2813 6.875 11.3875 6.875 11.5156V12.9219C6.875 13.05 6.975 13.1563 7.09688 13.1563H12.9C13.0219 13.1563 13.1219 13.05 13.1219 12.9219V11.5156C13.125 11.3875 13.025 11.2813 12.9031 11.2813ZM19.875 11.5156V12.9219C19.875 13.05 19.975 13.1563 20.0969 13.1563H25.9C26.0219 13.1563 26.1219 13.05 26.1219 12.9219V11.5156C26.1219 11.3875 26.0219 11.2813 25.9 11.2813H20.0969C19.975 11.2813 19.875 11.3875 19.875 11.5156ZM12.9031 15.6563H7.09688C6.975 15.6563 6.875 15.7625 6.875 15.8906V17.2969C6.875 17.425 6.975 17.5313 7.09688 17.5313H12.9C13.0219 17.5313 13.1219 17.425 13.1219 17.2969V15.8906C13.125 15.7625 13.025 15.6563 12.9031 15.6563ZM25.9031 15.6563H20.0969C19.975 15.6563 19.875 15.7625 19.875 15.8906V17.2969C19.875 17.425 19.975 17.5313 20.0969 17.5313H25.9C26.0219 17.5313 26.1219 17.425 26.1219 17.2969V15.8906C26.125 15.7625 26.025 15.6563 25.9031 15.6563Z" fill="#3F3F3F"/>
</g>
</svg>
