<svg width="32" height="32" viewBox="0 0 32 32" fill="none" xmlns="http://www.w3.org/2000/svg">
<g id="ant-design:home-outlined">
<path id="Vector" d="M29.5783 15.7813L17.5033 3.71258L16.694 2.9032C16.5096 2.72001 16.2602 2.61719 16.0002 2.61719C15.7403 2.61719 15.4909 2.72001 15.3065 2.9032L2.4221 15.7813C2.23314 15.9695 2.08379 16.1937 1.98289 16.4406C1.88199 16.6875 1.83156 16.9521 1.8346 17.2188C1.8471 18.3188 2.76273 19.1969 3.86273 19.1969H5.19085V29.3751H26.8096V19.1969H28.1658C28.7002 19.1969 29.2033 18.9876 29.5815 18.6094C29.7677 18.4239 29.9152 18.2032 30.0155 17.9602C30.1158 17.7172 30.1669 17.4567 30.1658 17.1938C30.1658 16.6626 29.9565 16.1594 29.5783 15.7813ZM17.7502 27.1251H14.2502V20.7501H17.7502V27.1251ZM24.5596 16.9469V27.1251H19.7502V20.0001C19.7502 19.3094 19.1908 18.7501 18.5002 18.7501H13.5002C12.8096 18.7501 12.2502 19.3094 12.2502 20.0001V27.1251H7.44085V16.9469H4.44085L16.0033 5.39383L16.7252 6.1157L27.5627 16.9469H24.5596Z" fill="#3F3F3F"/>
</g>
</svg>
