<svg width="33" height="32" viewBox="0 0 33 32" fill="none" xmlns="http://www.w3.org/2000/svg">
<g id="ant-design:play-circle-outlined">
<path id="Vector" d="M16.5 2C8.76875 2 2.5 8.26875 2.5 16C2.5 23.7313 8.76875 30 16.5 30C24.2313 30 30.5 23.7313 30.5 16C30.5 8.26875 24.2313 2 16.5 2ZM16.5 27.625C10.0813 27.625 4.875 22.4188 4.875 16C4.875 9.58125 10.0813 4.375 16.5 4.375C22.9188 4.375 28.125 9.58125 28.125 16C28.125 22.4188 22.9188 27.625 16.5 27.625Z" fill="#3F3F3F"/>
<path id="Vector_2" d="M22.9813 15.5971L13.7281 8.87836C13.6539 8.82396 13.5661 8.79124 13.4743 8.78384C13.3826 8.77644 13.2906 8.79465 13.2087 8.83645C13.1267 8.87824 13.0579 8.94198 13.0101 9.02056C12.9622 9.09914 12.9371 9.18947 12.9375 9.28149V22.719C12.9375 23.1284 13.4 23.3597 13.7281 23.1222L22.9813 16.4034C23.0451 16.3574 23.0972 16.2968 23.1331 16.2267C23.1689 16.1566 23.1877 16.079 23.1877 16.0003C23.1877 15.9215 23.1689 15.8439 23.1331 15.7738C23.0972 15.7037 23.0451 15.6432 22.9813 15.5971ZM14.9313 19.7846V12.2159L20.1406 16.0003L14.9313 19.7846Z" fill="#3F3F3F"/>
</g>
</svg>
