<svg width="25" height="25" viewBox="0 0 25 25" fill="none" xmlns="http://www.w3.org/2000/svg">
<g id="Messages 3">
<path id="icon" d="M15.96 18.2925L16.93 18.9325C17.49 19.3125 18.25 18.9025 18.25 18.2225V16.4125C19.52 16.4125 20.59 15.9925 21.33 15.2425C22.08 14.5025 22.5 13.4325 22.5 12.1625V7.0625C22.5 4.5125 20.8 2.8125 18.25 2.8125H9.75C7.2 2.8125 5.5 4.5125 5.5 7.0625V9.83252M15.96 18.2925C16.05 17.9825 16.09 17.6425 16.09 17.2825V13.2125C16.09 11.1725 14.73 9.8125 12.69 9.8125H5.89999C5.75999 9.8125 5.63 9.82252 5.5 9.83252M15.96 18.2925C15.59 19.7625 14.37 20.6825 12.69 20.6825H9.97L6.95 22.6925C6.5 23.0025 5.89999 22.6725 5.89999 22.1325V20.6825C4.87999 20.6825 4.03 20.3425 3.44 19.7525C2.84 19.1525 2.5 18.3025 2.5 17.2825V13.2125C2.5 11.3125 3.68 10.0025 5.5 9.83252" stroke="#292D32" stroke-width="1.5" stroke-miterlimit="10" stroke-linecap="round" stroke-linejoin="round"/>
</g>
</svg>
