<svg width="33" height="32" viewBox="0 0 33 32" fill="none" xmlns="http://www.w3.org/2000/svg">
<g id="Users More">
<g id="tone">
<path d="M20.5 10.667C20.5 12.8761 18.7091 14.667 16.5 14.667C14.2909 14.667 12.5 12.8761 12.5 10.667C12.5 8.45785 14.2909 6.66699 16.5 6.66699C18.7091 6.66699 20.5 8.45785 20.5 10.667Z" fill="#3F3F3F"/>
<path d="M8.5 24.0003C8.5 21.0548 10.8878 18.667 13.8333 18.667H19.1667C22.1122 18.667 24.5 21.0548 24.5 24.0003V25.3337H8.5V24.0003Z" fill="#3F3F3F"/>
</g>
<path id="shape" d="M4.50004 25.3336H1.83337V24.0003C1.83337 21.5152 3.53307 19.4271 5.83337 18.835M8.50004 14.4394C6.94645 13.8903 5.83337 12.4086 5.83337 10.667C5.83337 8.92538 6.94645 7.44373 8.50004 6.89461M28.5 25.3336H31.1667V24.0003C31.1667 21.5152 29.467 19.4271 27.1667 18.835M24.5 6.89461C26.0536 7.44373 27.1667 8.92538 27.1667 10.667C27.1667 12.4086 26.0536 13.8903 24.5 14.4394M13.8334 18.667H19.1667C22.1122 18.667 24.5 21.0548 24.5 24.0003V25.3337H8.50004V24.0003C8.50004 21.0548 10.8879 18.667 13.8334 18.667ZM20.5 10.667C20.5 12.8761 18.7092 14.667 16.5 14.667C14.2909 14.667 12.5 12.8761 12.5 10.667C12.5 8.45785 14.2909 6.66699 16.5 6.66699C18.7092 6.66699 20.5 8.45785 20.5 10.667Z" stroke="#3F3F3F" stroke-width="2" stroke-linecap="round" stroke-linejoin="round"/>
</g>
</svg>
